<svg width="30" height="30" viewBox="0 0 30 30" fill="none" xmlns="http://www.w3.org/2000/svg">
<path d="M14.9395 29.6211C22.8828 29.6211 29.418 23.0859 29.418 15.1426C29.418 7.18555 22.8828 0.650391 14.9258 0.650391C6.96875 0.650391 0.447266 7.18555 0.447266 15.1426C0.447266 23.0859 6.98242 29.6211 14.9395 29.6211ZM8.51367 17.2891C7.74805 17.2891 7.16016 16.6875 7.16016 15.9219C7.16016 15.1699 7.74805 14.5684 8.51367 14.5684H13.5723V7.5C13.5723 6.73438 14.1738 6.14648 14.9258 6.14648C15.6914 6.14648 16.2793 6.73438 16.2793 7.5V15.9219C16.2793 16.6875 15.6914 17.2891 14.9258 17.2891H8.51367Z" fill="#938079"/>
</svg>
