<svg width="36" height="36" viewBox="0 0 36 36" fill="none" xmlns="http://www.w3.org/2000/svg">
<circle cx="18" cy="18" r="18" fill="white"/>
<path fill-rule="evenodd" clip-rule="evenodd" d="M18 36C27.9411 36 36 27.9411 36 18C36 8.05887 27.9411 0 18 0C8.05887 0 0 8.05887 0 18C0 27.9411 8.05887 36 18 36ZM18 24.462C21.5689 24.462 24.462 21.5689 24.462 18C24.462 14.4311 21.5689 11.538 18 11.538C14.4311 11.538 11.538 14.4311 11.538 18C11.538 21.5689 14.4311 24.462 18 24.462ZM24.2747 4.81377C24.2747 6.10684 23.2265 7.15508 21.9334 7.15508C20.6404 7.15508 19.5921 6.10684 19.5921 4.81377C19.5921 3.5207 20.6404 2.47246 21.9334 2.47246C23.2265 2.47246 24.2747 3.5207 24.2747 4.81377ZM15.4152 6.78044C16.7083 6.78044 17.7565 5.7322 17.7565 4.43913C17.7565 3.14606 16.7083 2.09782 15.4152 2.09782C14.1222 2.09782 13.0739 3.14606 13.0739 4.43913C13.0739 5.7322 14.1222 6.78044 15.4152 6.78044ZM11.9875 7.13631C11.9875 8.42938 10.9392 9.47762 9.64618 9.47762C8.35311 9.47762 7.30487 8.42938 7.30487 7.13631C7.30487 5.84324 8.35311 4.795 9.64618 4.795C10.9392 4.795 11.9875 5.84324 11.9875 7.13631ZM5.48803 14.4225C6.7811 14.4225 7.82934 13.3742 7.82934 12.0812C7.82934 10.7881 6.7811 9.73984 5.48803 9.73984C4.19496 9.73984 3.14672 10.7881 3.14672 12.0812C3.14672 13.3742 4.19496 14.4225 5.48803 14.4225ZM6.48073 18.2997C6.48073 19.5928 5.43249 20.641 4.13941 20.641C2.84634 20.641 1.7981 19.5928 1.7981 18.2997C1.7981 17.0066 2.84634 15.9584 4.13941 15.9584C5.43249 15.9584 6.48073 17.0066 6.48073 18.2997ZM5.75026 26.7846C7.04333 26.7846 8.09158 25.7364 8.09158 24.4433C8.09158 23.1502 7.04333 22.102 5.75026 22.102C4.45719 22.102 3.40895 23.1502 3.40895 24.4433C3.40895 25.7364 4.45719 26.7846 5.75026 26.7846ZM12.3246 29.1259C12.3246 30.419 11.2764 31.4672 9.98331 31.4672C8.69024 31.4672 7.642 30.419 7.642 29.1259C7.642 27.8328 8.69024 26.7846 9.98331 26.7846C11.2764 26.7846 12.3246 27.8328 12.3246 29.1259ZM16.127 33.8273C17.42 33.8273 18.4683 32.779 18.4683 31.486C18.4683 30.1929 17.42 29.1446 16.127 29.1446C14.8339 29.1446 13.7856 30.1929 13.7856 31.486C13.7856 32.779 14.8339 33.8273 16.127 33.8273ZM24.7617 30.8866C24.7617 32.1796 23.7135 33.2279 22.4204 33.2279C21.1274 33.2279 20.0791 32.1796 20.0791 30.8866C20.0791 29.5935 21.1274 28.5452 22.4204 28.5452C23.7135 28.5452 24.7617 29.5935 24.7617 30.8866ZM27.8148 29.8564C29.1079 29.8564 30.1561 28.8082 30.1561 27.5151C30.1561 26.222 29.1079 25.1738 27.8148 25.1738C26.5217 25.1738 25.4735 26.222 25.4735 27.5151C25.4735 28.8082 26.5217 29.8564 27.8148 29.8564Z" fill="#938079"/>
</svg>
