<svg width="95" height="95" viewBox="0 0 95 95" fill="none" xmlns="http://www.w3.org/2000/svg">
<circle cx="47.5" cy="47.5" r="47.5" fill="white"/>
<path fill-rule="evenodd" clip-rule="evenodd" d="M47.5 95C73.7335 95 95 73.7335 95 47.5C95 21.2665 73.7335 0 47.5 0C21.2665 0 0 21.2665 0 47.5C0 73.7335 21.2665 95 47.5 95ZM47.5001 64.5526C56.9179 64.5526 64.5526 56.9179 64.5526 47.5C64.5526 38.0821 56.9179 30.4475 47.5001 30.4475C38.0822 30.4475 30.4475 38.0821 30.4475 47.5C30.4475 56.9179 38.0822 64.5526 47.5001 64.5526ZM64.0584 12.703C64.0584 16.1153 61.2922 18.8814 57.8799 18.8814C54.4676 18.8814 51.7014 16.1153 51.7014 12.703C51.7014 9.29072 54.4676 6.52453 57.8799 6.52453C61.2922 6.52453 64.0584 9.29072 64.0584 12.703ZM40.679 17.8928C44.0913 17.8928 46.8575 15.1266 46.8575 11.7144C46.8575 8.3021 44.0913 5.53591 40.679 5.53591C37.2667 5.53591 34.5006 8.3021 34.5006 11.7144C34.5006 15.1266 37.2667 17.8928 40.679 17.8928ZM31.6336 18.8319C31.6336 22.2442 28.8674 25.0104 25.4551 25.0104C22.0429 25.0104 19.2767 22.2442 19.2767 18.8319C19.2767 15.4197 22.0429 12.6535 25.4551 12.6535C28.8674 12.6535 31.6336 15.4197 31.6336 18.8319ZM14.4823 38.0593C17.8946 38.0593 20.6608 35.2931 20.6608 31.8808C20.6608 28.4686 17.8946 25.7024 14.4823 25.7024C11.0701 25.7024 8.30387 28.4686 8.30387 31.8808C8.30387 35.2931 11.0701 38.0593 14.4823 38.0593ZM17.1019 48.2908C17.1019 51.7031 14.3357 54.4693 10.9234 54.4693C7.51117 54.4693 4.74497 51.7031 4.74497 48.2908C4.74497 44.8786 7.51117 42.1124 10.9234 42.1124C14.3357 42.1124 17.1019 44.8786 17.1019 48.2908ZM15.1743 70.6816C18.5865 70.6816 21.3527 67.9154 21.3527 64.5031C21.3527 61.0908 18.5865 58.3246 15.1743 58.3246C11.762 58.3246 8.9958 61.0908 8.9958 64.5031C8.9958 67.9154 11.762 70.6816 15.1743 70.6816ZM32.5233 76.86C32.5233 80.2723 29.7571 83.0385 26.3449 83.0385C22.9326 83.0385 20.1664 80.2723 20.1664 76.86C20.1664 73.4477 22.9326 70.6815 26.3449 70.6815C29.7571 70.6815 32.5233 73.4477 32.5233 76.86ZM42.5572 89.2664C45.9695 89.2664 48.7357 86.5002 48.7357 83.088C48.7357 79.6757 45.9695 76.9095 42.5572 76.9095C39.145 76.9095 36.3788 79.6757 36.3788 83.088C36.3788 86.5002 39.145 89.2664 42.5572 89.2664ZM65.3434 81.5062C65.3434 84.9185 62.5772 87.6847 59.165 87.6847C55.7527 87.6847 52.9865 84.9185 52.9865 81.5062C52.9865 78.0939 55.7527 75.3277 59.165 75.3277C62.5772 75.3277 65.3434 78.0939 65.3434 81.5062ZM73.4001 78.7877C76.8124 78.7877 79.5786 76.0216 79.5786 72.6093C79.5786 69.197 76.8124 66.4308 73.4001 66.4308C69.9878 66.4308 67.2217 69.197 67.2217 72.6093C67.2217 76.0216 69.9878 78.7877 73.4001 78.7877Z" fill="#938079"/>
</svg>
