<svg width="36" height="29" viewBox="0 0 36 29" fill="none" xmlns="http://www.w3.org/2000/svg">
<path fill-rule="evenodd" clip-rule="evenodd" d="M36 0.000244141H0L18 0.000244974L36 0.000244141ZM26.6265 10.3132C27.9913 8.42481 27.6823 6.20487 25.8066 4.45139C24.4249 3.15875 22.3919 2.29888 19.7972 1.91109C19.3423 1.84365 17.1801 1.78745 16.7645 1.8324C15.4784 1.97291 14.546 2.16961 13.4621 2.53492C10.9124 3.38356 9.13199 4.94034 8.55912 6.8287C8.4805 7.0816 8.45804 7.34014 8.45804 7.86842C8.46365 8.48101 8.48612 8.62714 8.61529 9.02051C9.23873 10.864 11.0415 12.3702 13.6193 13.202C14.7651 13.5729 15.0683 13.6346 16.624 13.8258C17.1576 13.8876 18.7133 13.8876 19.2636 13.8258C20.3813 13.6965 20.679 13.6515 20.78 13.601C20.8362 13.5729 20.9597 13.5447 21.0496 13.5447C21.1339 13.5447 21.3192 13.5111 21.4596 13.4661C21.508 13.452 21.5729 13.4321 21.6449 13.41L21.6451 13.41L21.6453 13.4099H21.6454C21.7741 13.3705 21.925 13.3242 22.0436 13.2918C22.229 13.2356 22.4592 13.157 22.5604 13.112C22.6559 13.0726 22.7626 13.039 22.7963 13.039C22.83 13.039 22.9029 13.0164 22.9591 12.9884C23.0073 12.9615 23.3058 12.8172 23.6257 12.6625L23.6724 12.6399C24.2228 12.3814 25.0484 11.8812 25.3573 11.6283C26.0312 11.0663 26.239 10.8471 26.6265 10.3132ZM32.591 10.7347C32.9223 9.72306 32.591 8.8688 31.7149 8.46978C31.5295 8.38548 31.288 8.37424 29.7155 8.37424C28.3507 8.37424 27.9126 8.3911 27.8733 8.44168C27.8453 8.48101 27.7779 8.65524 27.7217 8.82388C27.2667 10.1671 26.1379 11.4709 24.6833 12.342C24.3014 12.5725 23.3972 13.0052 23.0546 13.1232C22.9315 13.1643 22.7899 13.2165 22.7079 13.2467H22.7078L22.6615 13.2638C22.5997 13.2918 22.3975 13.3537 22.2122 13.4043C22.0268 13.4548 21.7517 13.5335 21.6 13.5785C21.454 13.6235 21.2518 13.6572 21.1619 13.6572C21.0721 13.6572 20.9485 13.6852 20.8868 13.719C20.825 13.7527 20.5778 13.8033 20.3419 13.8314L20.2498 13.8423H20.2497C20.0143 13.8703 19.6912 13.9085 19.4939 13.9382C18.9492 14.0056 16.1523 13.9663 15.8939 13.8876C15.7872 13.8538 15.6131 13.8258 15.5064 13.8258C15.1245 13.8258 13.3161 13.365 12.6646 13.1008C12.6028 13.0726 12.44 13.0052 12.2995 12.9491C11.9232 12.7973 11.137 12.3758 10.755 12.1228C9.34539 11.1843 8.42434 9.95351 8.12106 8.58218C8.09298 8.4754 8.04805 8.43044 7.96943 8.43044C7.86271 8.43044 7.85148 8.45292 7.87957 8.644C7.90203 8.76201 7.94135 9.14417 7.97504 9.49829C8.04243 10.3188 8.27831 11.8756 8.39626 12.3364C8.40498 12.3845 8.44761 12.5614 8.4978 12.7697L8.54228 12.9546C8.69954 13.6515 9.01404 14.635 9.21065 15.0902C9.26673 15.2139 9.37908 15.4837 9.45774 15.6917C9.542 15.8996 9.71043 16.248 9.82837 16.4729C9.95192 16.6921 10.0531 16.8831 10.0531 16.8944C10.0531 16.9112 10.1878 17.1416 10.3563 17.4114C10.6034 17.816 10.6652 17.9622 10.6933 18.2545C10.8225 19.4516 11.7211 20.8172 12.8499 21.5534C14.282 22.4751 16.1691 22.9472 18.4493 22.9528C20.269 22.9585 21.5887 22.7112 22.8861 22.1154C24.0711 21.5759 25.3741 20.2495 25.7841 19.1592C25.8965 18.867 26.0537 18.0802 26.0593 17.8104C26.0593 17.7318 26.1435 17.4676 26.2502 17.2203L26.4468 16.7763L27.8677 16.7483C29.4571 16.7145 29.4852 16.7089 30.0805 16.2649C30.468 15.9782 30.659 15.6748 30.9735 14.8655C31.1139 14.4946 31.2543 14.1405 31.2824 14.0787C31.4172 13.7808 32.4955 11.0269 32.591 10.7347ZM7.63245 11.2967C7.59876 11.0663 7.54821 10.819 7.52012 10.7459C7.45835 10.5829 7.39095 10.5942 7.04836 10.8021C6.15538 11.3529 5.22871 12.0329 4.74571 12.4881C4.62215 12.6062 4.50421 12.7017 4.48736 12.7017C4.38066 12.7017 3.24057 14.1067 2.82496 14.7587C2.65648 15.0116 2.19033 16.0177 2.08362 16.3548C1.62871 17.7318 1.63433 19.2267 2.08362 20.6261C2.27457 21.2163 2.74633 22.1492 3.07769 22.61C3.19002 22.7674 3.33604 22.9753 3.38659 23.0596C3.55507 23.3181 4.65585 24.4366 5.16693 24.8637C6.02621 25.5831 7.48643 26.4879 8.53105 26.96C8.7278 27.0444 8.92847 27.1366 9.02551 27.1811L9.07022 27.2017C9.89014 27.5782 11.5638 28.1234 12.6084 28.3482C12.8556 28.4044 13.0971 28.4605 13.1419 28.4774C13.2824 28.5224 14.0855 28.6629 14.6864 28.7528C16.843 29.0619 19.6568 29.0844 21.7067 28.8034C24.7732 28.3819 27.1545 27.6063 29.6705 26.2069C30.131 25.9484 31.3161 25.111 31.7373 24.7457C32.0686 24.4534 32.9279 23.5935 33.1076 23.3743C33.3941 23.0203 33.7535 22.5426 33.7535 22.5145C33.7535 22.4976 33.8153 22.3965 33.8883 22.284C34.0568 22.0368 34.4949 21.1319 34.6128 20.7947C35.1014 19.3897 35.1183 17.7149 34.6689 16.3717C34.4836 15.8153 34.0062 14.843 33.7254 14.444C33.1245 13.601 32.2933 12.6624 32.1978 12.7242C32.1698 12.7355 32.1136 12.831 32.063 12.9378C31.9002 13.2638 31.6755 13.7696 31.6755 13.8089C31.6755 13.8314 31.4509 14.3765 31.17 15.0285C30.7376 16.0457 30.6253 16.2537 30.4006 16.4841C29.8783 17.0236 29.4908 17.1416 28.2047 17.1416C27.6711 17.1416 27.1826 17.1642 27.1264 17.1978C27.0309 17.2484 27.0309 17.2653 27.1151 17.5744C27.2274 17.9678 27.233 19.0188 27.132 19.3897C26.9467 20.0529 26.4412 20.8677 25.8571 21.4466C25.5313 21.767 24.7788 22.3571 24.5148 22.492C24.4789 22.5099 24.4188 22.5414 24.3467 22.5791L24.3465 22.5792L24.3463 22.5793H24.3462L24.3461 22.5794H24.346C24.2377 22.636 24.1024 22.7067 23.9812 22.7674C22.0212 23.7959 19.3535 24.2454 16.9048 23.9701C13.3329 23.5599 10.5472 21.8907 9.73291 19.6707C9.59248 19.2942 9.58128 19.1705 9.57568 18.5186C9.57568 17.9565 9.59817 17.7149 9.67674 17.4733L9.78349 17.1585L9.56439 16.7989C9.44085 16.6021 9.24433 16.2537 9.13199 16.0288C9.01404 15.8097 8.8961 15.6242 8.87921 15.6242C8.85681 15.6242 8.75007 15.6917 8.64337 15.7703C8.13791 16.1525 7.46397 16.3548 6.71139 16.3548C5.20624 16.3548 4.12793 15.4612 4.51545 14.5339C4.66147 14.1798 5.15008 13.8314 5.75102 13.6515C6.26771 13.4942 7.13261 13.4885 7.62122 13.6291C7.81217 13.6797 8.01435 13.7134 8.0649 13.6908L8.06715 13.69C8.08829 13.6817 8.10484 13.6754 8.11606 13.6637C8.15661 13.6219 8.12752 13.5127 7.99333 13.0092H7.99332H7.99331L7.98628 12.9827C7.84025 12.432 7.71107 11.8193 7.63245 11.2967ZM15.3885 3.24868C15.3885 3.05759 15.7479 2.68666 16.0175 2.60236C16.304 2.50682 17.0172 2.51806 17.3149 2.61922C17.826 2.79345 18.0675 3.27678 17.8035 3.60837C17.5339 3.95681 16.7421 4.12542 16.1579 3.96805C15.6694 3.83317 15.3885 3.56903 15.3885 3.24868ZM19.4715 2.73724C19.1065 2.86088 18.7919 3.20933 18.8369 3.43975C18.8818 3.6758 19.0334 3.85564 19.3199 4.00176C19.5333 4.10855 19.6568 4.13103 20.1061 4.13103C20.7239 4.13103 20.9991 4.02424 21.2631 3.68141C21.426 3.46223 21.4203 3.3161 21.2238 3.06882C20.9317 2.69227 20.0668 2.52929 19.4715 2.73724ZM12.7095 4.72675C12.3052 4.52443 12.1367 4.17598 12.2996 3.87811C12.3838 3.72075 12.6703 3.53528 12.9623 3.45098C13.2544 3.36669 13.8328 3.38354 14.181 3.4847C14.4169 3.55777 14.737 3.85002 14.7876 4.0411C14.8605 4.3221 14.4843 4.71551 14.0181 4.83916C13.6868 4.92907 12.996 4.87287 12.7095 4.72675ZM12.5748 5.91825C12.6423 5.67658 12.4456 5.39558 12.0918 5.22136C11.7155 5.03589 10.9685 5.00779 10.6316 5.16515C10.5024 5.22698 10.3114 5.35624 10.216 5.45739C10.0587 5.61476 10.0419 5.66534 10.0699 5.86767C10.1935 6.77251 12.3277 6.81747 12.5748 5.91825ZM14.664 7.25019C15.0628 6.54205 15.8154 6.05872 16.9049 5.81706C17.5901 5.66532 18.8257 5.73276 19.5221 5.95756C20.3758 6.24419 21.1227 6.85678 21.3025 7.42442C21.4204 7.8122 21.4204 7.89088 21.3025 8.23933C21.0778 8.90813 20.4488 9.43082 19.5165 9.71178C18.7919 9.93096 18.6628 9.94783 17.9664 9.94783C16.7589 9.94783 15.7142 9.5938 15.0852 8.97559C14.664 8.55968 14.5236 8.23371 14.5574 7.756C14.5742 7.55368 14.6191 7.32325 14.664 7.25019ZM10.0531 7.23338C9.82846 7.31206 9.51951 7.4919 9.42965 7.60431C9.27802 7.78415 9.29491 8.09888 9.45774 8.27872C9.80037 8.64965 10.4743 8.79574 11.0809 8.63279C11.5751 8.4979 11.8503 8.23376 11.8503 7.90216C11.8503 7.6886 11.5077 7.35702 11.1932 7.26147C10.9685 7.19403 10.216 7.17718 10.0531 7.23338ZM23.3804 9.40277C23.0883 9.30725 22.9817 9.15545 23.1557 9.08807L23.2232 9.05433C23.2232 9.05066 23.2609 9.06115 23.3165 9.0767H23.3166H23.3167C23.3468 9.08518 23.3822 9.09506 23.4197 9.10485C24.1162 9.31284 24.8237 9.32971 25.5426 9.16113C26.0762 9.03179 26.3626 9.04306 26.8006 9.21164C26.9467 9.26783 26.9524 9.27911 26.8906 9.45337C26.8119 9.68373 26.357 10.3807 26.2559 10.42C26.1885 10.4425 25.582 10.2458 25.0765 10.0323C24.8687 9.94792 23.7847 9.54329 23.3804 9.40277ZM10.89 9.35208C10.2048 9.56567 9.98009 10.0715 10.3957 10.4481C10.9292 10.937 12.1649 10.8864 12.5748 10.3637C12.7545 10.1333 12.777 9.97597 12.6479 9.76798C12.3951 9.35776 11.5134 9.14977 10.89 9.35208ZM22.1841 11.4653C21.9932 11.2743 21.9482 11.1393 22.0156 10.937C22.1167 10.6279 22.3695 10.4481 22.8581 10.3357C23.1276 10.2739 23.7005 10.3244 23.9644 10.4312C24.5317 10.6672 24.6889 11.1449 24.3071 11.4709C23.9981 11.7295 23.8634 11.7744 23.2512 11.7744C22.6391 11.7744 22.4368 11.7182 22.1841 11.4653ZM13.3667 10.9258C12.7489 11.0663 12.4961 11.2855 12.4961 11.6733C12.4961 11.8869 12.5242 11.9487 12.6647 12.0611C12.9792 12.3196 13.1926 12.387 13.7318 12.3814C14.1193 12.3814 14.299 12.3533 14.4955 12.2634C14.9786 12.0499 15.1302 11.634 14.8437 11.2967C14.6809 11.1 14.563 11.0438 14.0968 10.9258L14.0597 10.9165H14.0596C13.9123 10.8795 13.8354 10.8602 13.7579 10.8585C13.6728 10.8566 13.5873 10.8759 13.4078 10.9165L13.3667 10.9258ZM19.6287 12.8366C18.9268 12.505 18.9211 11.9486 19.6175 11.6114C20.1061 11.3754 20.7744 11.4203 21.3249 11.7351C21.5158 11.8418 21.6393 12.1173 21.5944 12.342C21.4934 12.8872 20.3476 13.1794 19.6287 12.8366ZM16.4162 11.752C16.0119 11.8755 15.6693 12.179 15.6693 12.4038C15.6693 12.6343 15.8378 12.8534 16.1411 13.022C16.3994 13.1626 16.478 13.1794 16.9611 13.1738C17.5507 13.1738 17.7192 13.112 18.0225 12.8141C18.4493 12.3869 18.0955 11.8812 17.2418 11.6901C16.9105 11.617 16.8262 11.6226 16.4162 11.752ZM28.6428 10.4874C28.6428 10.4368 28.6821 10.3019 28.727 10.1952L28.8056 9.99843L29.9401 10.0153C30.9791 10.0322 31.0746 10.0434 31.1476 10.139C31.3049 10.3637 31.2543 10.5436 30.6927 11.7744C30.6197 11.9261 30.468 12.2802 30.3557 12.5556C30.2486 12.8181 30.1364 13.0705 30.1068 13.1373H30.1067L30.103 13.1457C30.0749 13.1963 29.9289 13.5223 29.7717 13.8763C29.328 14.9048 29.21 14.9835 28.0419 15.0285C27.2162 15.0622 27.0702 15.0453 27.0702 14.9217C27.0702 14.8879 27.1657 14.6519 27.2893 14.4102C27.542 13.882 27.9632 12.8366 28.1935 12.151C28.3844 11.5833 28.6428 10.6166 28.6428 10.4874ZM7.74486 18.4174C7.64938 18.1251 7.25063 17.7149 6.90803 17.5519C6.43627 17.3327 5.51522 17.1697 5.08276 17.2372C4.04376 17.3889 3.31365 17.8497 3.14517 18.4624C2.9149 19.2886 4.02129 20.0697 5.41974 20.0697C6.58791 20.0641 7.45281 19.6257 7.73362 18.8951C7.81225 18.6871 7.81225 18.6253 7.74486 18.4174ZM27.1888 20.9463C27.1847 20.8922 27.2442 20.8331 27.3367 20.7414L27.3736 20.7048L27.5645 20.5136L27.8341 20.598C28.5979 20.834 29.0978 20.9183 29.8222 20.9464C30.5959 20.9743 30.6193 20.969 31.8388 20.6954L31.8722 20.6879C32.153 20.6261 32.5012 20.5699 32.6472 20.5699C32.9336 20.5699 33.5402 20.6879 33.9951 20.834C34.2647 20.9183 34.2703 20.9239 34.2366 21.1038C34.1635 21.486 33.3211 22.8572 32.9898 23.1327C32.9224 23.1889 31.0466 22.5201 28.5024 21.5421C28.43 21.5158 28.348 21.4837 28.28 21.4571C28.232 21.4382 28.191 21.4222 28.1654 21.4129L28.0141 21.3552C27.4113 21.1258 27.1963 21.044 27.1888 20.9463ZM4.66151 22.3458C4.66151 22.5987 4.6896 22.6999 4.81877 22.8742C4.99849 23.1327 5.54327 23.5036 5.89708 23.6048C6.23968 23.7059 7.54825 23.7452 7.83468 23.661C8.72205 23.3968 9.26682 22.9022 9.26682 22.3571C9.26682 21.6995 8.69396 21.205 7.67743 20.9858C7.17197 20.879 6.57103 20.8902 6.11612 21.0139C5.16698 21.2724 4.66151 21.7333 4.66151 22.3458ZM25.6663 24.8243C25.3068 24.4366 25.3012 23.8408 25.6551 23.4755C26.0201 23.0877 26.4244 22.8966 27.0984 22.7674C28.2329 22.5594 29.6088 23.0484 29.9121 23.7678C30.1592 24.3522 29.8447 24.8974 29.0585 25.2683C27.9352 25.7966 26.3626 25.5887 25.6663 24.8243ZM10.0531 23.8801C9.59257 24.0263 9.37916 24.1387 9.10959 24.3635C8.51423 24.8749 8.50862 25.4538 9.0927 25.9821C9.5532 26.398 10.1204 26.5835 10.9404 26.5835C11.8109 26.5835 12.4063 26.398 12.8668 25.9821C13.1364 25.7405 13.2431 25.5493 13.26 25.2852C13.2881 24.9087 13.2543 24.7963 13.0241 24.5377C12.5523 24.0038 11.9345 23.7734 10.9797 23.779C10.5585 23.779 10.2609 23.8127 10.0531 23.8801ZM20.3139 26.1901C20.3139 25.7011 20.5835 25.3583 21.2013 25.0717C21.4934 24.9311 21.6731 24.8862 22.3246 24.7681C22.6615 24.7064 23.65 24.8974 24.0656 25.0998C24.8855 25.51 25.1551 26.2406 24.689 26.7914C24.2284 27.3253 23.7118 27.5389 22.7851 27.5782C22.0044 27.612 21.5775 27.5276 21.0216 27.2185C20.5386 26.9544 20.3139 26.6285 20.3139 26.1901ZM16.0175 25.1896C14.9448 25.3413 14.1024 26.1507 14.3271 26.8195C14.6023 27.6569 16.0568 28.1852 17.3261 27.9098C18.41 27.6793 19.0615 26.9993 18.8762 26.3137C18.7302 25.791 17.9832 25.2964 17.1633 25.184C16.669 25.1166 16.5174 25.1166 16.0175 25.1896Z" fill="#938079"/>
</svg>
