<svg width="25" height="25" viewBox="0 0 25 25" fill="none" xmlns="http://www.w3.org/2000/svg">
<path d="M12.4883 24.655C19.1328 24.655 24.6172 19.1707 24.6172 12.5378C24.6172 5.90503 19.1211 0.420654 12.4766 0.420654C5.84375 0.420654 0.371094 5.90503 0.371094 12.5378C0.371094 19.1707 5.85547 24.655 12.4883 24.655ZM12.4766 14.448C10.1797 14.4363 8.39844 12.5144 8.39844 9.97144C8.375 7.58081 10.1914 5.58862 12.4766 5.58862C14.7617 5.58862 16.5547 7.58081 16.5547 9.97144C16.5547 12.5144 14.7734 14.4714 12.4766 14.448ZM12.4766 22.6511C9.85156 22.6511 7.0625 21.5613 5.29297 19.6628C6.64062 17.6472 9.3125 16.4753 12.4766 16.4753C15.6055 16.4753 18.3008 17.6238 19.6602 19.6628C17.8906 21.5613 15.1016 22.6511 12.4766 22.6511Z" fill="#AEAEB2"/>
</svg>
