<svg width="16" height="13" viewBox="0 0 16 13" fill="none" xmlns="http://www.w3.org/2000/svg">
<path d="M14.6639 0H1.33611C0.597222 0 0 0.597222 0 1.33333V11.1111C0 11.8472 0.597222 12.4444 1.33611 12.4444H14.6639C15.4028 12.4444 16 11.8472 16 11.1111V1.33333C16 0.597222 15.4028 0 14.6639 0ZM1.50278 1.33333H14.4972C14.5889 1.33333 14.6639 1.40833 14.6639 1.5V2.66667H1.33611V1.5C1.33611 1.40833 1.41111 1.33333 1.50278 1.33333ZM14.4972 11.1111H1.50278C1.41111 11.1111 1.33611 11.0361 1.33611 10.9444V6.22222H14.6639V10.9444C14.6639 11.0361 14.5889 11.1111 14.4972 11.1111ZM5.33333 8.33333V9.44444C5.33333 9.62778 5.18333 9.77778 5 9.77778H3C2.81667 9.77778 2.66667 9.62778 2.66667 9.44444V8.33333C2.66667 8.15 2.81667 8 3 8H5C5.18333 8 5.33333 8.15 5.33333 8.33333ZM10.6667 8.33333V9.44444C10.6667 9.62778 10.5167 9.77778 10.3333 9.77778H6.55556C6.37222 9.77778 6.22222 9.62778 6.22222 9.44444V8.33333C6.22222 8.15 6.37222 8 6.55556 8H10.3333C10.5167 8 10.6667 8.15 10.6667 8.33333Z" fill="#8E8E93"/>
</svg>
