<svg width="20" height="20" viewBox="0 0 20 20" fill="none" xmlns="http://www.w3.org/2000/svg">
<path opacity="0.4" d="M14.34 0H5.67C2.28 0 0 2.38 0 5.92V14.09C0 17.62 2.28 20 5.67 20H14.34C17.73 20 20 17.62 20 14.09V5.92C20 2.38 17.73 0 14.34 0" fill="#D1D1D6"/>
<path d="M13.0153 11.7705L11.2363 9.9925L13.0143 8.2145C13.3563 7.8735 13.3563 7.3185 13.0143 6.9775C12.6723 6.6335 12.1193 6.6345 11.7773 6.9765L9.99834 8.7545L8.21934 6.9745C7.87734 6.6325 7.32334 6.6345 6.98134 6.9745C6.64034 7.3165 6.64034 7.8715 6.98134 8.2125L8.76134 9.9925L6.98534 11.7675C6.64334 12.1095 6.64334 12.6645 6.98534 13.0045C7.15634 13.1765 7.37934 13.2615 7.60334 13.2615C7.82834 13.2615 8.05134 13.1765 8.22234 13.0055L9.99834 11.2295L11.7783 13.0085C11.9493 13.1795 12.1723 13.2645 12.3963 13.2645C12.6203 13.2645 12.8443 13.1785 13.0153 13.0085C13.3573 12.6665 13.3573 12.1125 13.0153 11.7705" fill="#8E8E93"/>
</svg>
