<svg width="96" height="96" viewBox="0 0 96 96" fill="none" xmlns="http://www.w3.org/2000/svg">
<g clip-path="url(#clip0)">
<circle cx="48" cy="48" r="48" fill="#FF3B30"/>
<g clip-path="url(#clip1)">
<path d="M68.028 72C66.8354 72 65.7919 71.5528 64.8975 70.6584L25.8416 31.6025C24.0528 29.8137 24.0528 26.9814 25.8416 25.3416C27.6304 23.5528 30.4627 23.5528 32.1025 25.3416L71.1584 64.2484C72.9472 66.0373 72.9472 68.8696 71.1584 70.5093C70.264 71.5528 69.0714 72 68.028 72Z" fill="white"/>
<path d="M28.972 72C27.7795 72 26.736 71.5528 25.8416 70.6584C24.0528 68.8696 24.0528 66.0373 25.8416 64.3975L64.7485 25.3416C66.5373 23.5528 69.3696 23.5528 71.0093 25.3416C72.7981 27.1304 72.7981 29.9627 71.0093 31.6025L32.1025 70.6584C31.2081 71.5528 30.1646 72 28.972 72Z" fill="white"/>
</g>
</g>
<defs>
<clipPath id="clip0">
<rect width="96" height="96" fill="white"/>
</clipPath>
<clipPath id="clip1">
<rect width="48" height="48" fill="white" transform="translate(24.5 24)"/>
</clipPath>
</defs>
</svg>
