<svg width="16" height="16" viewBox="0 0 16 16" fill="none" xmlns="http://www.w3.org/2000/svg">
<g clip-path="url(#clip0)">
<path d="M10.2001 13.1334C10.0046 13.1334 9.83346 13.06 9.6868 12.9134C9.39346 12.62 9.39346 12.1556 9.6868 11.8867L13.5735 8.00003L9.6868 4.11337C9.39346 3.82003 9.39346 3.35559 9.6868 3.0867C9.98013 2.79337 10.4446 2.79337 10.7135 3.0867L15.1135 7.4867C15.4068 7.78003 15.4068 8.24448 15.1135 8.51337L10.7135 12.9134C10.5912 13.06 10.3957 13.1334 10.2001 13.1334Z" fill="#8E8E93"/>
<path d="M1.40006 0.666828L7.60895 0.666828C8.02451 0.666828 8.34229 0.984607 8.34229 1.40016C8.34229 1.81572 8.02451 2.1335 7.60895 2.1335L2.1334 2.13349L2.13339 13.8668L7.60895 13.8668C8.02451 13.8668 8.34229 14.1846 8.34229 14.6002C8.34229 15.0157 8.02451 15.3335 7.60895 15.3335L1.40006 15.3335C0.984506 15.3335 0.666728 15.0157 0.666728 14.6002L0.666729 1.40016C0.666729 0.984606 0.984507 0.666828 1.40006 0.666828Z" fill="#8E8E93"/>
<path d="M13.8178 8.73327L5.14007 8.73327C4.72452 8.73327 4.40674 8.41549 4.40674 7.99993C4.40674 7.58438 4.72452 7.2666 5.14007 7.2666L13.8178 7.2666C14.2334 7.2666 14.5512 7.58438 14.5512 7.99994C14.5512 8.41549 14.2334 8.73327 13.8178 8.73327Z" fill="#8E8E93"/>
</g>
<defs>
<clipPath id="clip0">
<rect width="14.6667" height="14.6667" fill="white" transform="translate(15.3335 15.3335) rotate(-180)"/>
</clipPath>
</defs>
</svg>
