<svg width="18" height="20" viewBox="0 0 18 20" fill="none" xmlns="http://www.w3.org/2000/svg">
<path opacity="0.4" d="M15.8088 7.021C15.3573 7.021 14.7592 7.011 14.0146 7.011C12.1987 7.011 10.7055 5.508 10.7055 3.675V0.459C10.7055 0.206 10.5036 0 10.253 0H4.96363C2.49517 0 0.5 2.026 0.5 4.509V15.284C0.5 17.889 2.59022 20 5.16958 20H13.0463C15.5058 20 17.5 17.987 17.5 15.502V7.471C17.5 7.217 17.299 7.012 17.0475 7.013C16.6247 7.016 16.1177 7.021 15.8088 7.021Z" fill="#D1D1D6"/>
<path opacity="0.4" d="M13.0837 0.56737C12.7847 0.25637 12.2627 0.47037 12.2627 0.90137V3.53837C12.2627 4.64437 13.1737 5.55437 14.2797 5.55437C14.9767 5.56237 15.9447 5.56437 16.7667 5.56237C17.1877 5.56137 17.4017 5.05837 17.1097 4.75437C16.0547 3.65737 14.1657 1.69137 13.0837 0.56737Z" fill="#D1D1D6"/>
<path fill-rule="evenodd" clip-rule="evenodd" d="M5.97349 9.38744H9.35849C9.76949 9.38744 10.1035 9.05444 10.1035 8.64344C10.1035 8.23244 9.76949 7.89844 9.35849 7.89844H5.97349C5.56249 7.89844 5.22949 8.23244 5.22949 8.64344C5.22949 9.05444 5.56249 9.38744 5.97349 9.38744ZM5.97359 14.3816H11.4176C11.8286 14.3816 12.1626 14.0486 12.1626 13.6376C12.1626 13.2266 11.8286 12.8926 11.4176 12.8926H5.97359C5.56259 12.8926 5.22959 13.2266 5.22959 13.6376C5.22959 14.0486 5.56259 14.3816 5.97359 14.3816Z" fill="#8E8E93"/>
</svg>
