<svg width="16" height="16" viewBox="0 0 16 16" fill="none" xmlns="http://www.w3.org/2000/svg">
<g clip-path="url(#clip0)">
<path d="M13.2609 15.3332H2.0728C1.65386 15.3332 1.3335 15.0159 1.3335 14.6011V1.39862C1.3335 0.983753 1.65386 0.666504 2.0728 0.666504H8.28291C8.70185 0.666504 9.02221 0.983753 9.02221 1.39862V5.59607H13.2609C13.6798 5.59607 14.0002 5.91331 14.0002 6.32818V14.6011C14.0002 14.9915 13.6798 15.3332 13.2609 15.3332ZM2.8121 13.8689H12.5216V7.06029H8.28291C7.86398 7.06029 7.54361 6.74304 7.54361 6.32818V2.13073H2.8121V13.8689Z" fill="white"/>
<path d="M13.2607 7.06029C13.0636 7.06029 12.8911 6.98708 12.7432 6.84066L7.76525 1.9111C7.46953 1.61825 7.46953 1.15458 7.76525 0.886138C8.06097 0.593293 8.52919 0.593293 8.80027 0.886138L13.7782 5.7913C14.0739 6.08414 14.0739 6.54781 13.7782 6.81625C13.6304 6.98708 13.4579 7.06029 13.2607 7.06029Z" fill="white"/>
<path d="M10.7473 12.3558H4.58647C4.16753 12.3558 3.84717 12.0386 3.84717 11.6237C3.84717 11.2089 4.16753 10.8916 4.58647 10.8916H10.7227C11.1416 10.8916 11.462 11.2089 11.462 11.6237C11.462 12.0386 11.1416 12.3558 10.7473 12.3558Z" fill="white"/>
<path d="M10.7473 9.69567H4.58647C4.16753 9.69567 3.84717 9.37842 3.84717 8.96356C3.84717 8.54869 4.16753 8.23145 4.58647 8.23145H10.7227C11.1416 8.23145 11.462 8.54869 11.462 8.96356C11.462 9.37842 11.1416 9.69567 10.7473 9.69567Z" fill="white"/>
<path d="M6.139 7.06042H4.58647C4.16753 7.06042 3.84717 6.74317 3.84717 6.3283C3.84717 5.91344 4.16753 5.59619 4.58647 5.59619H6.139C6.55793 5.59619 6.8783 5.91344 6.8783 6.3283C6.8783 6.74317 6.55793 7.06042 6.139 7.06042Z" fill="white"/>
</g>
<defs>
<clipPath id="clip0">
<rect width="12.6667" height="14.6667" fill="white" transform="translate(1.3335 0.666504)"/>
</clipPath>
</defs>
</svg>
