<svg width="19" height="16" viewBox="0 0 19 16" fill="none" xmlns="http://www.w3.org/2000/svg">
<path d="M0.867676 12.1943C0.867676 13.7104 1.63672 14.4648 3.16748 14.4648H10.792C10.5796 14.0986 10.4185 13.7031 10.3159 13.2856H3.05762C2.40576 13.2856 2.04688 12.9414 2.04688 12.2603V5.35352C2.04688 4.67969 2.40576 4.32812 3.05762 4.32812H13.2676C13.9194 4.32812 14.2856 4.67969 14.2856 5.35352V7.43359C14.498 7.41162 14.6885 7.39697 14.8862 7.39697C15.0767 7.39697 15.2744 7.41162 15.4648 7.43359V3.25146C15.4648 1.74268 14.7031 0.980957 13.1724 0.980957H3.16748C1.63672 0.980957 0.867676 1.73535 0.867676 3.25146V12.1943ZM6.73438 6.95752H7.1665C7.42285 6.95752 7.51074 6.88428 7.51074 6.62793V6.1958C7.51074 5.93945 7.42285 5.85889 7.1665 5.85889H6.73438C6.47803 5.85889 6.39014 5.93945 6.39014 6.1958V6.62793C6.39014 6.88428 6.47803 6.95752 6.73438 6.95752ZM9.17334 6.95752H9.59814C9.85449 6.95752 9.94238 6.88428 9.94238 6.62793V6.1958C9.94238 5.93945 9.85449 5.85889 9.59814 5.85889H9.17334C8.90967 5.85889 8.8291 5.93945 8.8291 6.1958V6.62793C8.8291 6.88428 8.90967 6.95752 9.17334 6.95752ZM11.605 6.95752H12.0371C12.2935 6.95752 12.374 6.88428 12.374 6.62793V6.1958C12.374 5.93945 12.2935 5.85889 12.0371 5.85889H11.605C11.3486 5.85889 11.2607 5.93945 11.2607 6.1958V6.62793C11.2607 6.88428 11.3486 6.95752 11.605 6.95752ZM4.30273 9.35254H4.73486C4.99121 9.35254 5.07178 9.2793 5.07178 9.02295V8.59082C5.07178 8.33447 4.99121 8.26123 4.73486 8.26123H4.30273C4.04639 8.26123 3.9585 8.33447 3.9585 8.59082V9.02295C3.9585 9.2793 4.04639 9.35254 4.30273 9.35254ZM6.73438 9.35254H7.1665C7.42285 9.35254 7.51074 9.2793 7.51074 9.02295V8.59082C7.51074 8.33447 7.42285 8.26123 7.1665 8.26123H6.73438C6.47803 8.26123 6.39014 8.33447 6.39014 8.59082V9.02295C6.39014 9.2793 6.47803 9.35254 6.73438 9.35254ZM9.17334 9.35254H9.59814C9.85449 9.35254 9.94238 9.2793 9.94238 9.02295V8.59082C9.94238 8.33447 9.85449 8.26123 9.59814 8.26123H9.17334C8.90967 8.26123 8.8291 8.33447 8.8291 8.59082V9.02295C8.8291 9.2793 8.90967 9.35254 9.17334 9.35254ZM14.8862 15.8418C16.9004 15.8418 18.6069 14.1572 18.6069 12.1211C18.6069 10.0776 16.9224 8.40039 14.8862 8.40039C12.8428 8.40039 11.1655 10.085 11.1655 12.1211C11.1655 14.1719 12.8428 15.8418 14.8862 15.8418ZM13.1504 12.6924C12.894 12.6924 12.689 12.4873 12.689 12.2383C12.689 11.9966 12.9014 11.7915 13.1504 11.7915H14.4688V9.95312C14.4688 9.71143 14.6738 9.51367 14.9229 9.51367C15.1719 9.51367 15.377 9.71143 15.377 9.95312V12.2383C15.377 12.4946 15.1792 12.6924 14.9229 12.6924H13.1504ZM4.30273 11.7549H4.73486C4.99121 11.7549 5.07178 11.6743 5.07178 11.418V10.9858C5.07178 10.7295 4.99121 10.6562 4.73486 10.6562H4.30273C4.04639 10.6562 3.9585 10.7295 3.9585 10.9858V11.418C3.9585 11.6743 4.04639 11.7549 4.30273 11.7549ZM6.73438 11.7549H7.1665C7.42285 11.7549 7.51074 11.6743 7.51074 11.418V10.9858C7.51074 10.7295 7.42285 10.6562 7.1665 10.6562H6.73438C6.47803 10.6562 6.39014 10.7295 6.39014 10.9858V11.418C6.39014 11.6743 6.47803 11.7549 6.73438 11.7549ZM9.17334 11.7549H9.59814C9.85449 11.7549 9.94238 11.6743 9.94238 11.418V10.9858C9.94238 10.7295 9.85449 10.6562 9.59814 10.6562H9.17334C8.90967 10.6562 8.8291 10.7295 8.8291 10.9858V11.418C8.8291 11.6743 8.90967 11.7549 9.17334 11.7549Z" fill="black"/>
</svg>
