<svg width="24" height="23" viewBox="0 0 24 23" fill="none" xmlns="http://www.w3.org/2000/svg">
<path d="M3.92578 22.5078H20.0625C22.6055 22.5078 23.9297 21.1953 23.9297 18.6875V4.42578C23.9297 1.91797 22.6055 0.605469 20.0625 0.605469H3.92578C1.39453 0.605469 0.0703125 1.90625 0.0703125 4.42578V18.6875C0.0703125 21.1953 1.39453 22.5078 3.92578 22.5078ZM3.91406 20.1758C2.94141 20.1758 2.40234 19.6719 2.40234 18.6406V7.85938C2.40234 6.82812 2.94141 6.32422 3.91406 6.32422H20.0742C21.0469 6.32422 21.5859 6.82812 21.5859 7.85938V18.6406C21.5859 19.6719 21.0469 20.1758 20.0742 20.1758H3.91406ZM5.91797 10.5312H18.0938C18.5156 10.5312 18.832 10.2031 18.832 9.76953C18.832 9.35938 18.5156 9.04297 18.0938 9.04297H5.91797C5.48438 9.04297 5.16797 9.35938 5.16797 9.76953C5.16797 10.2031 5.48438 10.5312 5.91797 10.5312ZM5.91797 13.9883H18.0938C18.5156 13.9883 18.832 13.6719 18.832 13.2617C18.832 12.8398 18.5156 12.5 18.0938 12.5H5.91797C5.48438 12.5 5.16797 12.8398 5.16797 13.2617C5.16797 13.6719 5.48438 13.9883 5.91797 13.9883ZM5.91797 17.4453H13.6055C14.0273 17.4453 14.3438 17.1289 14.3438 16.7188C14.3438 16.2969 14.0273 15.9688 13.6055 15.9688H5.91797C5.48438 15.9688 5.16797 16.2969 5.16797 16.7188C5.16797 17.1289 5.48438 17.4453 5.91797 17.4453Z" fill="#938079"/>
</svg>
