<svg width="34" height="27" viewBox="0 0 34 27" fill="none" xmlns="http://www.w3.org/2000/svg">
<path d="M28.2812 0.03125H5.36719C2.22266 0.03125 0.486328 1.75391 0.486328 4.88477V7.00391H33.1621V4.88477C33.1621 1.75391 31.4258 0.03125 28.2812 0.03125ZM6.80273 21.2773C5.99609 21.2773 5.44922 20.7305 5.44922 19.9648V17.4355C5.44922 16.6699 5.99609 16.123 6.80273 16.123H10.1523C10.9453 16.123 11.4922 16.6699 11.4922 17.4355V19.9648C11.4922 20.7305 10.9453 21.2773 10.1523 21.2773H6.80273ZM5.36719 26.2676H28.2812C31.4258 26.2676 33.1621 24.5312 33.1621 21.4141V10.3945H0.486328V21.4141C0.486328 24.5449 2.22266 26.2676 5.36719 26.2676Z" fill="#938079"/>
</svg>
